<svg width="25" height="25" viewBox="0 0 25 25" fill="none" xmlns="http://www.w3.org/2000/svg">
<path d="M12.0749 22.6716C17.5978 22.6716 22.0749 18.1945 22.0749 12.6716C22.0749 7.14878 17.5978 2.67163 12.0749 2.67163C6.55206 2.67163 2.07491 7.14878 2.07491 12.6716C2.07491 18.1945 6.55206 22.6716 12.0749 22.6716Z" stroke="white" stroke-width="2" stroke-linecap="round" stroke-linejoin="round"/>
<path d="M9.16491 9.67165C9.40001 9.00332 9.86406 8.43976 10.4749 8.08078C11.0857 7.72181 11.8038 7.59059 12.5021 7.71036C13.2004 7.83014 13.8337 8.19318 14.29 8.73518C14.7462 9.27718 14.996 9.96317 14.9949 10.6717C14.9949 12.6717 11.9949 13.6717 11.9949 13.6717" stroke="white" stroke-width="2" stroke-linecap="round" stroke-linejoin="round"/>
<path d="M12.0749 17.6716H12.0849" stroke="white" stroke-width="2" stroke-linecap="round" stroke-linejoin="round"/>
</svg>
